<svg xmlns="http://www.w3.org/2000/svg" width="128" height="128" viewBox="0 0 128 128"><defs><radialGradient id="bg"><stop stop-color="#a8c23a" stop-opacity=".30"/><stop offset="1" stop-color="#17151f"/></radialGradient><linearGradient id="m" x2="1" y2="1"><stop stop-color="#e2efa8"/><stop offset=".5" stop-color="#a8c23a"/><stop offset="1" stop-color="#232d12"/></linearGradient></defs><rect width="128" height="128" rx="17" fill="url(#bg)"/><path d="M12 19h21M95 19h21M12 109h21M95 109h21" stroke="#e2efa8" stroke-width="3" opacity=".7"/><path d="M54 22h20v16l18 26c6 8 6 18 0 26-5 7-14 10-28 10s-23-3-28-10c-6-8-6-18 0-26l18-26z" transform="translate(0 0)" fill="#232d12" stroke="#e2efa8" stroke-width="3" stroke-linejoin="round"/><path d="M36 82c-2 8 2 14 8 18 6 4 14 4 20 4s14 0 20-4c6-4 10-10 8-18-8 4-14 2-22 2s-22 2-34-2z" fill="url(#m)"/><path d="M50 22h28" stroke="#e2efa8" stroke-width="3" stroke-linejoin="round" stroke-linecap="round"/><path d="M50 84c8-4 20-4 28 0M54 92c6-3 14-3 20 0" stroke="#e2efa8" stroke-width="3" fill="none" stroke-linecap="round"/></svg>
