<svg xmlns="http://www.w3.org/2000/svg" viewBox="0 0 128 128"><defs><radialGradient id="bg"><stop stop-color="#d8cfbd" stop-opacity=".34"/><stop offset="1" stop-color="#17151f"/></radialGradient><linearGradient id="metal" x2="1" y2="1"><stop stop-color="#f3ecd9"/><stop offset=".48" stop-color="#d8cfbd"/><stop offset="1" stop-color="#17151f"/></linearGradient></defs><rect width="128" height="128" rx="17" fill="url(#bg)"/><path d="M12 19h21M95 19h21M12 109h21M95 109h21" stroke="#f3ecd9" stroke-width="3" opacity=".8"/><g fill="url(#metal)" stroke="#f3ecd9" stroke-width="3" stroke-linejoin="round" stroke-linecap="round"><path d="M58 14h12v18H58z"/><path d="M46 38c0-10 8-16 18-16s18 6 18 16c0 14 6 28 14 40H32c8-12 14-26 14-40z"/><path d="M28 82h72v8H28z"/><circle cx="64" cy="102" r="8"/><path d="M48 40c-2 12-6 22-12 34M80 40c2 12 6 22 12 34" fill="none"/><path d="M70 28c16 2 22 12 26 26" fill="none"/></g></svg>
