<svg xmlns="http://www.w3.org/2000/svg" viewBox="0 0 128 128"><defs><radialGradient id="bg"><stop stop-color="#6fe3c8" stop-opacity=".30"/><stop offset="1" stop-color="#17151f"/></radialGradient><linearGradient id="m" x2="1" y2="1"><stop stop-color="#c8fff0"/><stop offset=".5" stop-color="#6fe3c8"/><stop offset="1" stop-color="#0f3a36"/></linearGradient></defs><rect width="128" height="128" rx="17" fill="url(#bg)"/><path d="M12 19h21M95 19h21M12 109h21M95 109h21" stroke="#c8fff0" stroke-width="3" opacity=".7"/><g transform="translate(-25.6 -24.8) scale(1.4)"><path d="M56 20h16v10l-2 4v40a14 14 0 0 1-12 0V34l-2-4z" fill="#0f3a36" stroke="#c8fff0" stroke-width="3" stroke-linejoin="round"/><path d="M57 54h14v22a12 12 0 0 1-14 0z" fill="url(#m)"/><path d="M52 20h24" stroke="#c8fff0" stroke-width="3" stroke-linejoin="round" stroke-linecap="round"/><path d="M50 104h28" stroke="#c8fff0" stroke-width="3" stroke-linejoin="round" stroke-linecap="round"/><path d="M58 60c4 4 8 4 12 0" stroke="#c8fff0" stroke-width="2.5" fill="none"/></g></svg>
